<?xml version="1.0" encoding="utf-8"?>
<!-- Generator: Adobe Illustrator 25.0.0, SVG Export Plug-In . SVG Version: 6.00 Build 0)  -->
<svg version="1.1" id="Calque_1" xmlns="http://www.w3.org/2000/svg" xmlns:xlink="http://www.w3.org/1999/xlink" x="0px" y="0px"
	 viewBox="0 0 120 120" style="enable-background:new 0 0 120 120;" xml:space="preserve">
<style type="text/css">
	.st0{fill:#3F838E;}
</style>
<path class="st0" d="M70.1,26c-5.6,3-8.8,5.4-2.9,7.3c-0.3,3.4-0.6,6.3-0.8,9.2c0.5-0.1,1.1-0.1,1.6-0.2c-1.3,3-2.6,6-4.4,10.3
	c8.9-1.4,9.3-6.4,9.4-11.4c0.1-11.2,0-22.4,0-33.6c14.3-0.2,20.6,5.1,20.8,17.9c0.2,11.2-0.4,22.5-1.1,33.7c-0.2,3-1.4,6.3-3.2,8.7
	c-6,8-28.2,12.5-37.9,10.1C33,73.2,26.5,61.7,28.5,43.6c0.5-4.8,0.1-9.8,0.2-14.7C29,12.2,30.9,10,48.3,6.7
	c4.6,14.8-4.5,32.2,5.5,45.9c1.5-0.4,3.1-0.8,4.6-1.2c-1.1-2.7-2.2-5.5-3.3-8.2c1.9-2.4,7.1-5.5-2.2-7.9c4.2-3.2,9.5-6.1-0.5-8.5
	c5.2-3,8.6-5.7,3-7.6c0.2-3.7,0.4-6.6,0.7-12c2.4,0,7.4,0,12.4,0c0.6,0.7,1.1,1.4,1.7,2.1c-7.2,2.9-7.2,5.8-1.1,8.5
	C64.8,20.5,61.9,23.2,70.1,26z"/>
<path class="st0" d="M86.8,76c5,8,9.8,15.7,14.5,23.3c-18.5,23.6-59.5,23.9-80.1,0.5c0.7-1.3,1.4-2.9,2.3-4.3
	c3.9-6.1,6.6-15.1,12-17.2c5-2,12.9,4.1,19.7,5.2c5,0.8,10.6-0.1,15.7-1.4C76.1,80.9,81,78.3,86.8,76z"/>
<path class="st0" d="M104.7,96c-4.4-6.9-8.4-13.1-12.2-19.4c-0.7-1.1-1.2-3.1-0.7-3.9c10.3-13.9,5.4-30,6.5-45.2
	c0.2-2.2,0-4.5,0-6.9C119.8,33,124.5,74.3,104.7,96z"/>
<path class="st0" d="M24.8,19.1c0,14-0.1,26.3,0.1,38.6c0,2.3-0.1,5.2,1.2,6.6c7.8,9,2.4,16-2.8,23.2c-1.8,2.5-3.4,5.2-5.2,7.9
	C-0.1,79.2-0.5,38.7,24.8,19.1z"/>
</svg>
