<?xml version="1.0" encoding="utf-8"?>
<!-- Generator: Adobe Illustrator 25.0.0, SVG Export Plug-In . SVG Version: 6.00 Build 0)  -->
<svg version="1.1" id="Calque_1" xmlns="http://www.w3.org/2000/svg" xmlns:xlink="http://www.w3.org/1999/xlink" x="0px" y="0px"
	 viewBox="0 0 46.6 54.6" style="enable-background:new 0 0 46.6 54.6;" xml:space="preserve">
<style type="text/css">
	.st0{fill:#3F838E;}
</style>
<path class="st0" d="M23.3,53.2c-1.9,0-3.8,0.1-5.6,0c-8-0.4-13.6-5.4-14.8-13.3c-1-6.3-2.2-12.5-2.8-18.8
	C-0.6,13.4,2.8,8.8,10.4,8.2c8.7-0.6,17.5-0.6,26.2,0.1c7.3,0.6,10.8,6,9.9,13.3c-0.9,6.5-1.9,13.1-3.1,19.6
	c-1.3,6.8-6.9,11.5-14,12C27.3,53.3,25.3,53.2,23.3,53.2L23.3,53.2z M23.6,20.3c-2.8,0.2-5.4,0.2-8,0.5c-3.5,0.5-6.2,2.1-6.9,5.8
	c-0.8,3.8,2.5,4.1,4.6,5.3c4.1,2.4,4.7,3.8,3.2,8.2c-0.3,0.8-0.6,1.6-0.9,2.5c-1,2.4-0.2,3.6,2.4,3.6c3.3,0,6.5,0.1,9.8,0
	c3.9-0.1,4.2-0.6,3-4.2c-2.4-7-2.2-7.7,4.6-11c3.1-1.5,3.5-3.9,1.9-6.1c-1.3-1.8-3.7-3.3-5.9-4C28.8,20.2,26,20.5,23.6,20.3z"/>
<path class="st0" d="M8,5.7c5.4-5.9,24.6-5.9,30.2,0C28.1,5.7,18.1,5.7,8,5.7z"/>
<path class="st0" d="M27,38.3c-2.7,0-4.8,0-7.4,0c0.4-4.9-2.9-7.2-6.8-8.9c-2.9-1.2-2.2-2.9-0.7-4.6c0.4-0.5,1-1,1.5-1
	c6.4-0.1,12.8-0.2,19.2,0c1,0,2.3,1.9,2.6,3.2c0.2,0.7-1.3,2.2-2.3,2.7C29.6,31.4,26.6,33.5,27,38.3z"/>
</svg>
