<?xml version="1.0" encoding="utf-8"?>
<!-- Generator: Adobe Illustrator 25.0.0, SVG Export Plug-In . SVG Version: 6.00 Build 0)  -->
<svg version="1.1" id="Calque_1" xmlns="http://www.w3.org/2000/svg" xmlns:xlink="http://www.w3.org/1999/xlink" x="0px" y="0px"
	 viewBox="0 0 102.6 103.7" style="enable-background:new 0 0 102.6 103.7;" xml:space="preserve">
<style type="text/css">
	.st0{fill:#3F838E;}
</style>
<path class="st0" d="M8.7,82.8c8.4-1.6,14.3-7.2,20,0.8c0.7,1,4.5,0.5,6.6-0.2C64.3,73.3,77.8,52,75.4,21.6
	c-0.7-8.8-6.9-7.7-12.2-8.1c-4.2-12.6-2.4-14.8,10-12.9c4.2,0.6,8.5,1.2,12.4,2.7c16.1,6.4,18.2,11,14.5,25.1
	c-3.6,13.8-4.3,27.6,1,41.2c3.2,8.2-0.1,14.8-8.3,16c-26,3.7-52.2,7.1-78.4,0.7C13.2,86,12.1,84.9,8.7,82.8z"/>
<path class="st0" d="M42.3,102c-12.1,2.5-24.3,2.8-35.9-2.8C0.7,96.4-1.7,91.5,1.2,87c10.6,2.1,20.2,3.7,29.6,6.1
	c4.4,1.2,8.4,4,12.6,6.1C43.1,100.1,42.7,101,42.3,102z"/>
<path class="st0" d="M46.6,94.7c18.4-1.5,36.8-3.1,55.9-4.7c0.7,4.7-4,7-8.6,7.5c-9.6,1.2-19.3,1.3-29,1.9c-3.9,0.3-7.9,1.2-11.7,1
	c-2.5-0.1-4.9-1.7-7.3-2.7C46.1,96.8,46.4,95.8,46.6,94.7z"/>
</svg>
