<?xml version="1.0" encoding="utf-8"?>
<!-- Generator: Adobe Illustrator 25.0.0, SVG Export Plug-In . SVG Version: 6.00 Build 0)  -->
<svg version="1.1" id="Calque_1" xmlns="http://www.w3.org/2000/svg" xmlns:xlink="http://www.w3.org/1999/xlink" x="0px" y="0px"
	 viewBox="0 0 46.6 54.6" style="enable-background:new 0 0 46.6 54.6;" xml:space="preserve">
<style type="text/css">
	.st0{fill:#3F838E;}
</style>
<path class="st0" d="M11.4,28.2c0-5.3-0.3-10.6,0.2-15.8c0.1-1.4,3.1-3.4,4.7-3.3c1.6,0.1,3.5,2.3,4.3,4c0.8,1.8,0.3,4.1,0.3,6.2
	c0,6.7-0.1,13.5,0,20.2c0.1,7.1,4.7,12.2,11.2,12.5c6.7,0.3,12-4.7,12.2-11.9c0.3-8.8,0.1-17.6,0.1-26.4c0-2.4-0.7-4.6-3.7-4.4
	c-2.6,0.2-3.2,2.2-3.2,4.4c0,7.4,0,15,0,22.4c0,4.4-1.9,6.8-5,6.7c-3-0.1-4.7-2.3-4.7-6.7c0-6.8,0-13.7,0-20.5
	c0-7.7-4.9-13-11.8-13.1c-7,0-11.7,5.2-11.7,13c0,4.2,0,8.4,0,12.7c-0.9-0.2-1.3-0.3-1.3-0.3c0.2-6.3-0.5-12.7,0.8-18.8
	s8.2-9.3,14.2-8.3c6.7,1.2,11.2,6.1,11.4,12.8c0.2,7.4,0,15,0.1,22.4c0,1.4,0.5,2.9,1.3,4c0.5,0.6,2.4,1,2.8,0.5
	c1-1,2.1-2.5,2.2-3.8c0.2-7.2,0.1-14.5,0.1-21.6c0-1-0.1-2,0-2.9c0.3-3,2.5-5.2,5.4-4.9c3.1,0.4,4.9,2.2,4.9,5.4c0,6,0,12,0,18
	c0,3.2,0.1,6.4,0,9.6c-0.2,7.5-5.9,13.2-13.3,13.3c-7.6,0.1-13.5-5.6-13.7-13.3c-0.1-8.3-0.1-16.6,0-24.9c0-2.3-0.3-4.7-3.3-4.6
	c-2.8,0.1-2.9,2.4-2.9,4.6c0,4.3,0,8.6,0,12.9C12.3,28.2,11.8,28.2,11.4,28.2z"/>
<path class="st0" d="M0.5,37.2c2,0,3.5,0,5.6,0c0,5,0.2,9.9-0.1,14.7c-0.1,0.9-1.8,2.2-2.8,2.2c-0.7,0.1-2.3-1.5-2.4-2.3
	C0.4,47.1,0.5,42.2,0.5,37.2z"/>
<path class="st0" d="M9.2,37.2c2.1,0,3.6,0,5.5,0c0,4.9,0.1,9.8-0.1,14.7c0,0.9-1.8,2.3-2.4,2.2c-1.2-0.1-2.8-1.5-2.8-2.3
	C9,47.1,9.2,42.3,9.2,37.2z"/>
<path class="st0" d="M10.1,30.3c1.4-0.1,2.2-0.1,3.4-0.2c-0.2,1.9-0.3,3.5-0.6,5.1c0,0.2-1.9,0.3-1.9,0.2
	C10.7,33.8,10.4,32.1,10.1,30.3z"/>
<path class="st0" d="M5.5,30.4c-0.8,2-1.5,3.6-2.1,5.2c-0.7-0.5-2-1.3-2-1.5C2,32.5,0.9,29.8,5.5,30.4z"/>
</svg>
