<?xml version="1.0" encoding="utf-8"?>
<!-- Generator: Adobe Illustrator 25.0.0, SVG Export Plug-In . SVG Version: 6.00 Build 0)  -->
<svg version="1.1" id="Calque_1" xmlns="http://www.w3.org/2000/svg" xmlns:xlink="http://www.w3.org/1999/xlink" x="0px" y="0px"
	 viewBox="0 0 48.1 80" style="enable-background:new 0 0 48.1 80;" xml:space="preserve">
<style type="text/css">
	.st0{fill:#3F838E;}
</style>
<path class="st0" d="M34.6,67.7c0.1,9.6-5.6,14.1-13.9,11.7c-4.8-1.4-6.2-5.3-6.3-9.5c-0.1-3.7,0.6-7.6,1.6-11.2
	c1.6-5.8,3.6-11.4,5.6-17.1c0.3-0.9,1.5-1.9,2.4-2.1c0.7-0.2,2.2,0.6,2.5,1.3c2.8,8.3,5.4,16.6,8,24.9
	C34.7,66.4,34.6,67.2,34.6,67.7z"/>
<path class="st0" d="M13.5,77.7C8.3,75,5.9,71.4,7.4,66.2c1.9-6.7,5-13.1,7.7-19.6c1-2.3,2.2-4.4,3.8-6.5
	C17.5,52.7,7.2,63.7,13.5,77.7z"/>
<path class="st0" d="M29.2,39.6c0.9,1,1.5,1.6,1.8,2.2c3.2,6.9,6.6,13.8,9.3,20.9c2.6,6.8,0.7,11.5-5.6,15.2
	c5.9-12.2-1.6-22-4.4-32.4c-0.4-1.4-1-2.8-1.4-4.3C28.8,41,29,40.7,29.2,39.6z"/>
<path class="st0" d="M21.1,30.9c2.4,0,4.1,0,6.1,0c0-2.4,0-4.6,0-6.7c1.8,1.2,2.6,6.2,0.9,8.1s-3.8,3.1-6.3,1.1
	c-2.7-2.1-2.9-6.5-0.3-9.8C21.4,26.1,21.2,28.4,21.1,30.9z"/>
<path class="st0" d="M29.7,37.6c-3.5,0-7,0-10.5,0C20.9,35.4,25.3,35.1,29.7,37.6z"/>
<ellipse class="st0" cx="24" cy="13.3" rx="24" ry="8.8"/>
<path class="st0" d="M24.4,2.9c-12.6,0-22.9,3.5-24,8C0.2,10.3,0,9.7,0,9.1c0-4.8,10.8-8.8,24-8.8c13.3,0,24.1,3.9,24.1,8.8
	c0,0.3,0,0.5-0.1,0.8C45.8,5.9,36.1,2.9,24.4,2.9z"/>
</svg>
