<?xml version="1.0" encoding="utf-8"?>
<!-- Generator: Adobe Illustrator 25.0.0, SVG Export Plug-In . SVG Version: 6.00 Build 0)  -->
<svg version="1.1" id="Calque_1" xmlns="http://www.w3.org/2000/svg" xmlns:xlink="http://www.w3.org/1999/xlink" x="0px" y="0px"
	 viewBox="0 0 117.1 82.2" style="enable-background:new 0 0 117.1 82.2;" xml:space="preserve">
<style type="text/css">
	.st0{fill:#737F8A;}
</style>
<path class="st0" d="M16.4,18c-5.6,9-2.6,15.1,7.5,16.3c1.5,0.2,3,0.1,4.5,0.1C44.3,34.6,50.1,39,51.8,52
	c1.9,15.3-4.2,26.2-16.4,29.2C21.5,84.7,7.2,78.7,3.1,66.9c-4.4-12.5-3.9-25.4,0-37.9C4.9,22.9,9.2,18.8,16.4,18z"/>
<path class="st0" d="M55.6,69.6c0-7,0.7-13.6-0.1-20C53.9,36.7,46,30.2,32.9,29.8c-3.8-0.1-7.6,0-11.3-0.7c-1.5-0.3-2.9-2.4-3.8-4
	c-0.3-0.5,1-2.6,1.8-2.8c1.7-0.4,4-0.5,5.3,0.3C35.3,28.9,41,28.4,49.7,20c1.8-1.7,3.7-3.6,5.9-4.7c7.4-3.5,14.9-2.9,21.7,1.5
	s4.8,11.4,4.5,16.8c-6.6,1-12.6,1.6-18.5,3.1c-1.3,0.3-2.4,3.8-2.4,5.9c-0.2,7,4.2,8.5,20.1,7.4C85.3,66.8,78.2,72.4,55.6,69.6z"/>
<path class="st0" d="M71.7,9.3c-11-1.3-19.9,1.7-27.3,10c-3.5,3.9-9,5.6-13.7,2.2c-2.5-1.7-5.5-6.5-4.7-8.3c1.8-4.2,5.1-9,9-10.7
	C48.1-2.9,60.4,0.9,71.7,9.3z"/>
<path class="st0" d="M93.1,66.6c0-8.9,0-16.9,0-24.9c0-5.3,3.8-5.3,7.4-5.2c4,0.1,9.5-1.7,10,4.9c0.5,7,0.3,14.1-0.1,21.1
	c-0.1,1.5-2.4,3.7-4,3.9C102.5,67,98.4,66.6,93.1,66.6z"/>
<path class="st0" d="M116.8,16.5c0,4.4,0,8.2,0,11c-9.9,0-19.6,0-29.6,0c0-2.9,0-6.6,0-11C96.8,16.5,106.4,16.5,116.8,16.5z"/>
<path class="st0" d="M113.3,66c0-6.8,0-13.7,0-20.5c0-10.4-1.3-11.8-10.9-11.7c-11,0-12.3,1.2-12.4,12c0,6.6,0,13.3,0,19.9
	c-1.1,0-2.3,0-3.4,0c0.5-10.1,0.1-20.3,1.8-30.2c0.9-5.3,10.3-7.2,19.7-5.2c6.1,1.3,8.9,5.4,8.9,11.4c0.1,8.1,0,16.2,0,24.3
	C115.8,66,114.5,66,113.3,66z"/>
<path class="st0" d="M83.7,39.6c-2.1,3.1-3.3,6.3-4.7,6.4c-4.7,0.3-10.7,1-13.8-1.5c-3.2-2.6,0.2-6.5,4.5-6.7
	C73.4,37.8,77.2,38.8,83.7,39.6z"/>
</svg>
