<?xml version="1.0" encoding="utf-8"?>
<!-- Generator: Adobe Illustrator 25.0.0, SVG Export Plug-In . SVG Version: 6.00 Build 0)  -->
<svg version="1.1" id="Calque_1" xmlns="http://www.w3.org/2000/svg" xmlns:xlink="http://www.w3.org/1999/xlink" x="0px" y="0px"
	 viewBox="0 0 120 120" style="enable-background:new 0 0 120 120;" xml:space="preserve">
<style type="text/css">
	.st0{fill:#3F838E;}
</style>
<path class="st0" d="M86.2,17.9c-9-5.6-15.1-2.6-16.3,7.5c-0.2,1.5-0.1,3-0.1,4.5c-0.2,15.9-4.6,21.7-17.6,23.4
	C36.9,55.2,26,49.1,23,36.9C19.5,23,25.5,8.7,37.3,4.6c12.5-4.4,25.4-3.9,37.9,0C81.3,6.4,85.4,10.7,86.2,17.9z"/>
<path class="st0" d="M34.6,57.1c7,0,13.6,0.7,20-0.1c12.9-1.6,19.4-9.5,19.8-22.6c0.1-3.8,0-7.6,0.7-11.3c0.3-1.5,2.4-2.9,4-3.8
	c0.5-0.3,2.6,1,2.8,1.8c0.4,1.7,0.5,4-0.3,5.3c-6.3,10.4-5.8,16.1,2.6,24.8c1.7,1.8,3.6,3.7,4.7,5.9c3.5,7.4,2.9,14.9-1.5,21.7
	c-4.4,6.8-11.4,4.8-16.8,4.5c-1-6.6-1.6-12.6-3.1-18.5c-0.3-1.3-3.8-2.4-5.9-2.4c-7-0.2-8.5,4.2-7.4,20.1
	C37.4,86.8,31.8,79.7,34.6,57.1z"/>
<path class="st0" d="M94.9,73.2c1.3-11-1.7-19.9-10-27.3c-3.9-3.5-5.6-9-2.2-13.7c1.7-2.5,6.5-5.5,8.3-4.7c4.2,1.8,9,5.1,10.7,9
	C107.1,49.6,103.3,61.9,94.9,73.2z"/>
<path class="st0" d="M37.6,94.6c8.9,0,16.9,0,24.9,0c5.3,0,5.3,3.8,5.2,7.4c-0.1,4,1.7,9.5-4.9,10c-7,0.5-14.1,0.3-21.1-0.1
	c-1.5-0.1-3.7-2.4-3.9-4C37.2,104,37.6,99.9,37.6,94.6z"/>
<path class="st0" d="M87.7,118.3c-4.4,0-8.2,0-11,0c0-9.9,0-19.6,0-29.6c2.9,0,6.6,0,11,0C87.7,98.3,87.7,107.9,87.7,118.3z"/>
<path class="st0" d="M38.2,114.8c6.8,0,13.7,0,20.5,0c10.4,0,11.8-1.3,11.7-10.9c0-11-1.2-12.3-12-12.4c-6.6,0-13.3,0-19.9,0
	c0-1.1,0-2.3,0-3.4c10.1,0.5,20.3,0.1,30.2,1.8c5.3,0.9,7.2,10.3,5.2,19.7c-1.3,6.1-5.4,8.9-11.4,8.9c-8.1,0.1-16.2,0-24.3,0
	C38.2,117.3,38.2,116,38.2,114.8z"/>
<path class="st0" d="M64.6,85.2c-3.1-2.1-6.3-3.3-6.4-4.7c-0.3-4.7-1-10.7,1.5-13.8c2.6-3.2,6.5,0.2,6.7,4.5
	C66.4,74.9,65.4,78.7,64.6,85.2z"/>
</svg>
