<?xml version="1.0" encoding="utf-8"?>
<!-- Generator: Adobe Illustrator 25.0.0, SVG Export Plug-In . SVG Version: 6.00 Build 0)  -->
<svg version="1.1" id="Calque_1" xmlns="http://www.w3.org/2000/svg" xmlns:xlink="http://www.w3.org/1999/xlink" x="0px" y="0px"
	 viewBox="0 0 117.5 91" style="enable-background:new 0 0 117.5 91;" xml:space="preserve">
<style type="text/css">
	.st0{fill:#3F838E;}
</style>
<path class="st0" d="M53.4,4.3c-4,5.3-7.7,10.2-11.5,15.2c-2.5,0-5.1-0.4-7.6,0.1c-8,1.4-13.1,8.1-12.6,16.1
	c0.5,7.6,6.2,13.7,14.1,13.7c4.8,0,6.5,2,8.3,5.9c2.6,5.7,6,11,9.4,16.2c2.4,3.6,1.9,6.4-0.6,9.7C43.9,94,29.5,94.5,20.9,81.5
	C14.6,72.1,8.6,62.3,4,52.1c-6.3-13.9-5.4-27.8,5.3-39.8C19.2,1.1,35.1-2.8,48.9,2.1C50.5,2.6,51.9,3.5,53.4,4.3z"/>
<path class="st0" d="M54.5,48.7c-6.2,2.6-8.6,0.1-9.7-6.1c-2.6-15.3,3.4-28.9,16.7-37.1c12.8-7.9,29.4-7.1,41.5,2
	c12,8.9,17.2,23.8,12.9,38c-0.5,1.6-2.6,4.1-3.8,4c-2.4-0.2-4.8-1.7-7-3c-1.4-0.8-2.3-3-3.7-3.3c-11.3-2.2-22.6-5.3-34.3-1.9
	c-2.1,0.6-4.5,0.4-6.4,1.2c-2.6,1.2-4.8,3.1-7.2,4.6C53.9,47.6,54.2,48.1,54.5,48.7z M100.8,24.5c-1.3,2.2-2.4,3.9-4.1,6.6
	c-0.9-12.7-0.9-12.7-8.7-11.2c-0.7,3.2-1.3,6.4-2,9.6c-0.5-0.1-1-0.2-1.5-0.3c-0.3-4-0.6-7.9-0.9-11.7c-14-4-6.1,8.8-10.7,13.2
	c-0.8-4.3-1.4-7.9-2-11.3c-13-2.5-6,7.9-8.6,12c-3.3,0-6.7,0-10.8,0c0.9,3.7,1.5,6.2,2.4,9.6c17.7-6,34.7-4.4,52-0.4
	c0.8-5.5,1.5-9.7,2.2-14.2C105.3,25.7,103,25.1,100.8,24.5z"/>
<path class="st0" d="M50.1,52.9c20.5,0,41,0,63.5,0c-3.9,6.6-6.4,11.5-9.5,15.9c-0.9,1.3-3.6,1.8-5.5,1.8
	c-11.8,0.1-23.5,0.2-35.3-0.1c-2,0-4.8-0.9-5.9-2.3c-3-4-5.3-8.5-7.9-12.8C49.7,54.6,49.9,53.8,50.1,52.9z"/>
<path class="st0" d="M61.4,74.7c13.3,0,25.6,0,38.1,0c-2.4,9.2-9,15.2-16.9,16.1C73.9,91.7,67,86.8,61.4,74.7z"/>
</svg>
