<?xml version="1.0" encoding="utf-8"?>
<!-- Generator: Adobe Illustrator 25.0.0, SVG Export Plug-In . SVG Version: 6.00 Build 0)  -->
<svg version="1.1" id="Calque_1" xmlns="http://www.w3.org/2000/svg" xmlns:xlink="http://www.w3.org/1999/xlink" x="0px" y="0px"
	 viewBox="0 0 40.4 61.4" style="enable-background:new 0 0 40.4 61.4;" xml:space="preserve">
<style type="text/css">
	.st0{fill:#3F838E;}
</style>
<path class="st0" d="M5.7,33.9c-2.3-3.5-3.1-3.8-5.6-2.4c-0.6-3.6,1.6-6,5.6-6c4.3-0.1,8.2-0.9,10.3-5.2c2.7,0,5.5,0,8.2,0
	c2.2,4.2,6.1,5.1,10.4,5.2c3.9,0.1,5.9,2.1,5.8,5.9c-2.9-1.2-3.8-0.8-5.6,2.4c2,0.8,2,1.9,0.7,3.5c-4.2,5.1-5.3,10.7-3.1,17.1
	c1.4,4,0.5,5.1-3.7,6.1c-6,1.4-11.9,1.3-17.9-0.2c-3.3-0.9-3.9-1.8-3.2-5.1c0.1-0.4,0.2-0.7,0.3-1c2.4-6.3,0.9-11.8-3.1-16.8
	C3.6,35.8,3,34.5,5.7,33.9z M23.8,40.4c4.2,1.8,7.4,1,7.9-1.6C29,39.3,26.2,39.9,23.8,40.4z M16.2,40.4c-2.5-0.6-5.3-1.2-7.7-1.7
	C9.4,41.4,12.1,42.1,16.2,40.4z"/>
<path class="st0" d="M20,18.9c-4.7,0-5.5-0.7-6.3-5.3c-0.4-2-0.7-3.9-1-5.9c-0.5-4.2,2.5-7.5,7-7.7c4.8-0.2,8.3,3,7.9,7.3
	c-0.2,2.7-0.8,5.4-1.4,8.1C25.6,18.3,24.3,18.9,20,18.9z"/>
<path class="st0" d="M23.8,40.4c2.4-0.5,5.3-1.1,7.9-1.6C31.2,41.3,27.9,42.2,23.8,40.4z"/>
<path class="st0" d="M16.2,40.4c-4.1,1.6-6.7,0.9-7.7-1.7C10.9,39.3,13.6,39.9,16.2,40.4z"/>
</svg>
