<?xml version="1.0" encoding="utf-8"?>
<!-- Generator: Adobe Illustrator 25.0.0, SVG Export Plug-In . SVG Version: 6.00 Build 0)  -->
<svg version="1.1" id="Calque_1" xmlns="http://www.w3.org/2000/svg" xmlns:xlink="http://www.w3.org/1999/xlink" x="0px" y="0px"
	 viewBox="0 0 100 83.1" style="enable-background:new 0 0 100 83.1;" xml:space="preserve">
<style type="text/css">
	.st0{fill:#3F838E;}
</style>
<path class="st0" d="M50.5,0c14.6-0.5,27.3,6,33.8,19.3c6.9,13.9,11.9,29,15.3,44.2c2.9,12.9-13.2,24-25.1,17.8
	c-3.5-1.9-5.8-7.7-7.1-12c-2.5-9.1-3.1-18.8-6.3-27.6c-1.3-3.8-7.1-8.7-10.6-8.5c-4.2,0.3-10.1,4.5-11.7,8.5
	c-3.2,7.8-4.6,16.5-5.6,25c-1.4,12.5-4.8,16.5-15.5,15.7c-11-0.8-19-8.2-17.7-18.2c2.4-17.8,7.1-34.9,18.6-49.4
	C26.6,5,36.9-0.1,50.5,0z M7.9,73.9c0.8-4.6,1.1-8.4,2.3-11.9c3.6-10.6,6.1-22,11.8-31.4C35.2,9.1,63.5,8.9,77.7,29.7
	c4.9,7.1,7.7,16,10.5,24.3c2,6,2.7,12.4,4.2,19.8c7.4-13-2.5-44-16.7-55.6C60.5,5.6,38.4,5.9,23.4,18.9C9.9,30.5,0.6,61.7,7.9,73.9z
	 M20.8,77.1c1.6,0.4,3.2,0.8,4.7,1.2c0.9-3,2.2-6.1,2.9-9.2c1.9-8.7,2.8-17.6,5.3-26.1c2.4-7.9,6.9-14.7,16.8-14.5
	c9.8,0.3,14,7.4,16.2,15.2c2.4,8.5,3.4,17.4,5.2,26.1c0.7,3,2.1,5.9,3.3,8.7c1.4-0.4,2.8-0.8,4.2-1.2c-3-13.7-5.2-27.6-9.3-41
	c-2.7-8.7-9.8-13.6-19.8-13.6c-10.3-0.1-17.7,5-20.5,14C25.9,49.9,23.8,63.6,20.8,77.1z"/>
</svg>
